<?xml version="1.0" standalone="no"?><!DOCTYPE svg PUBLIC "-//W3C//DTD SVG 1.1//EN" "http://www.w3.org/Graphics/SVG/1.1/DTD/svg11.dtd"><svg height="600" legacy-metrics="false" node-id="1" sillyvg="true" template-height="600" template-width="800" version="1.1" viewBox="0 0 800 600" width="800" xmlns="http://www.w3.org/2000/svg" xmlns:xlink="http://www.w3.org/1999/xlink"><defs node-id="55"><linearGradient gradientUnits="userSpaceOnUse" id="paint0_linear" node-id="48" x1="438.692" x2="385.025" y1="160.949" y2="445.462"><stop offset="0" stop-color="#fec6d7"></stop><stop offset="1" stop-color="#6386ff"></stop></linearGradient><linearGradient gradientUnits="userSpaceOnUse" id="paint1_linear" node-id="51" x1="483.198" x2="483.198" y1="127.544" y2="384.908"><stop offset="0" stop-color="#d8e1ff"></stop><stop offset="1" stop-color="#f5f4ff"></stop></linearGradient></defs><path d="M 0.00 0.00 L 800.00 0.00 L 800.00 600.00 L 0.00 600.00 Z" fill="#ffffff" fill-rule="nonzero" node-id="70" stroke="none" target-height="600" target-width="800" target-x="0" target-y="0"></path><path d="M 639.28 312.28 C 615.03 371.14 555.55 366.89 499.99 384.89 C 454.73 399.56 419.00 442.23 329.42 434.19 C 239.83 426.14 166.34 345.33 191.19 255.79 C 216.05 166.25 321.61 114.79 451.12 170.94 C 580.63 227.08 663.54 253.42 639.28 312.28 Z" fill="url(#paint0_linear)" fill-opacity="0.1" fill-rule="nonzero" node-id="72" stroke="none" target-height="287.60168" target-width="457.1758" target-x="186.3234" target-y="147.56886"></path><path d="M 599.00 457.00 C 599.00 460.87 555.12 464.00 501.00 464.00 C 446.88 464.00 403.00 460.87 403.00 457.00 C 403.00 453.13 446.88 450.00 501.00 450.00 C 555.12 450.00 599.00 453.13 599.00 457.00 Z" fill="#f3f3f3" fill-rule="nonzero" node-id="74" stroke="none" target-height="14" target-width="196" target-x="403" target-y="450"></path><path d="M 417.65 130.46 L 553.59 130.46 C 563.58 130.46 571.68 138.56 571.68 148.55 L 571.68 369.74 C 571.68 379.73 563.58 387.82 553.59 387.82 L 417.65 387.82 C 407.66 387.82 399.57 379.73 399.57 369.74 L 399.57 148.55 C 399.57 138.56 407.66 130.46 417.65 130.46 Z" fill="#b2c3ff" fill-rule="nonzero" node-id="76" stroke="none" target-height="257.364" target-width="172.11203" target-x="399.567" target-y="130.459"></path><path d="M 415.23 127.54 L 551.17 127.54 C 561.16 127.54 569.25 135.64 569.25 145.63 L 569.25 366.82 C 569.25 376.81 561.16 384.91 551.17 384.91 L 415.23 384.91 C 405.24 384.91 397.14 376.81 397.14 366.82 L 397.14 145.63 C 397.14 135.64 405.24 127.54 415.23 127.54 Z" fill="url(#paint1_linear)" fill-rule="nonzero" node-id="78" stroke="none" target-height="257.36398" target-width="172.11203" target-x="397.142" target-y="127.544"></path><path d="M 544.07 256.66 C 544.07 291.12 516.81 319.06 483.20 319.06 C 449.58 319.06 422.33 291.12 422.33 256.66 C 422.33 222.19 449.58 194.25 483.20 194.25 C 516.81 194.25 544.07 222.19 544.07 256.66 Z" fill="#ffffff" fill-rule="nonzero" node-id="80" stroke="none" target-height="124.80861" target-width="121.73779" target-x="422.3291" target-y="194.2517"></path><path d="M 474.80 250.20 C 474.80 256.96 465.57 260.10 462.63 260.96 C 466.27 264.12 475.73 270.43 484.46 270.43 C 493.19 270.43 499.85 264.12 502.09 260.96 C 499.43 259.38 492.85 255.02 492.85 250.20 L 492.85 240.30 L 474.80 240.30 L 474.80 250.20 Z" fill="#fcd8e3" fill-rule="nonzero" node-id="82" stroke="none" target-height="30.126007" target-width="39.460022" target-x="462.628" target-y="240.302"></path><path d="M 439.54 279.68 L 439.54 300.12 C 439.54 300.12 452.13 318.63 484.88 318.63 C 517.62 318.63 525.60 300.12 525.60 300.12 C 526.44 292.38 527.61 287.26 525.60 279.68 C 523.58 272.11 505.76 260.44 497.50 257.00 C 495.54 260.16 489.72 265.00 482.00 265.00 C 474.28 265.00 472.32 260.16 470.50 257.00 C 470.50 257.00 439.54 271.42 439.54 279.68 Z" fill="#b2c3ff" fill-rule="nonzero" node-id="84" stroke="none" target-height="61.630005" target-width="87.138214" target-x="439.54" target-y="257"></path><path d="M 466.15 211.10 C 465.16 200.68 473.36 191.67 483.83 191.67 C 494.14 191.67 502.29 200.43 501.54 210.72 L 499.79 234.74 C 499.19 242.97 492.34 249.34 484.09 249.34 C 475.97 249.34 469.18 243.16 468.42 235.08 L 466.15 211.10 Z" fill="#fcd8e3" fill-rule="nonzero" node-id="86" stroke="none" target-height="57.67" target-width="35.39499" target-x="466.146" target-y="191.67"></path><path d="M 468.08 229.97 C 466.27 226.39 462.63 210.43 464.31 202.86 C 466.41 193.39 489.07 186.94 487.81 181.77 C 492.43 183.92 502.09 194.42 502.09 207.16 C 502.09 219.48 500.83 223.56 500.26 226.56 C 500.20 227.53 500.10 228.39 499.99 229.11 C 499.99 228.24 500.10 227.44 500.26 226.56 C 500.68 220.41 499.89 210.14 494.95 207.16 C 487.81 202.86 479.42 201.71 471.86 207.16 C 465.99 211.41 466.97 226.49 468.08 229.97 Z" fill="#f9759c" fill-rule="nonzero" node-id="88" stroke="none" target-height="48.20201" target-width="38.167664" target-x="463.92035" target-y="181.771"></path><path d="M 430.73 171.44 L 434.92 171.44 L 434.92 191.24 L 430.73 191.24 Z" fill="#d84aa8" fill-rule="nonzero" node-id="90" stroke="none" target-height="19.797195" target-width="4.1978455" target-x="430.725" target-y="171.442"></path><path d="M 430.73 175.75 L 430.73 171.44 L 450.04 171.44 L 450.04 175.75 Z" fill="#d84aa8" fill-rule="nonzero" node-id="92" stroke-linecap="butt" stroke-width="1" target-height="4.3037415" target-width="19.31009" target-x="430.725" target-y="171.44226"></path><path d="M 536.51 171.44 L 532.31 171.44 L 532.31 191.24 L 536.51 191.24 Z" fill="#d84aa8" fill-rule="nonzero" node-id="94" stroke-linecap="butt" stroke-width="1" target-height="19.797195" target-width="4.197876" target-x="532.31213" target-y="171.442"></path><path d="M 536.51 175.75 L 536.51 171.44 L 517.20 171.44 L 517.20 175.75 Z" fill="#d84aa8" fill-rule="nonzero" node-id="96" stroke-linecap="butt" stroke-width="1" target-height="4.3037567" target-width="19.31012" target-x="517.1999" target-y="171.44225"></path><path d="M 430.73 331.54 L 434.92 331.54 L 434.92 310.02 L 430.73 310.02 Z" fill="#d84aa8" fill-rule="nonzero" node-id="98" stroke-linecap="butt" stroke-width="1" target-height="21.518707" target-width="4.1978455" target-x="430.725" target-y="310.02228"></path><path d="M 430.73 326.86 L 430.73 331.54 L 450.04 331.54 L 450.04 326.86 Z" fill="#d84aa8" fill-rule="nonzero" node-id="100" stroke-linecap="butt" stroke-width="1" target-height="4.6779785" target-width="19.31009" target-x="430.725" target-y="326.863"></path><path d="M 536.51 331.54 L 532.31 331.54 L 532.31 310.02 L 536.51 310.02 Z" fill="#d84aa8" fill-rule="nonzero" node-id="102" stroke-linecap="butt" stroke-width="1" target-height="21.518707" target-width="4.197815" target-x="532.3122" target-y="310.02228"></path><path d="M 536.51 326.86 L 536.51 331.54 L 517.20 331.54 L 517.20 326.86 Z" fill="#d84aa8" fill-rule="nonzero" node-id="104" stroke-linecap="butt" stroke-width="1" target-height="4.6779785" target-width="19.31012" target-x="517.1999" target-y="326.863"></path><path d="M 455.57 343.59 L 510.83 343.59 C 512.49 343.59 513.84 344.94 513.84 346.60 L 513.84 346.60 C 513.84 348.27 512.49 349.62 510.83 349.62 L 455.57 349.62 C 453.90 349.62 452.55 348.27 452.55 346.60 L 452.55 346.60 C 452.55 344.94 453.90 343.59 455.57 343.59 Z" fill="#d2d9f1" fill-rule="nonzero" node-id="106" stroke="none" target-height="6.025238" target-width="61.288666" target-x="452.553" target-y="343.592"></path><path d="M 437.10 356.50 L 529.30 356.50 C 530.96 356.50 532.31 357.85 532.31 359.52 L 532.31 359.52 C 532.31 361.18 530.96 362.53 529.30 362.53 L 437.10 362.53 C 435.43 362.53 434.08 361.18 434.08 359.52 L 434.08 359.52 C 434.08 357.85 435.43 356.50 437.10 356.50 Z" fill="#d2d9f1" fill-rule="nonzero" node-id="108" stroke="none" target-height="6.025238" target-width="98.2298" target-x="434.083" target-y="356.503"></path><path d="M 412.51 136.15 L 433.82 136.15 C 435.82 136.15 437.44 137.77 437.44 139.77 L 437.44 155.77 C 437.44 157.77 435.82 159.39 433.82 159.39 L 412.51 159.39 C 410.52 159.39 408.90 157.77 408.90 155.77 L 408.90 139.77 C 408.90 137.77 410.52 136.15 412.51 136.15 Z" fill="#abb8e7" fill-rule="nonzero" node-id="110" stroke="none" target-height="23.240204" target-width="28.54541" target-x="408.896" target-y="136.151"></path><path d="M 425.75 143.04 L 437.38 143.04 C 437.88 143.04 438.28 143.44 438.28 143.94 L 438.28 150.74 C 438.28 151.24 437.88 151.64 437.38 151.64 L 425.75 151.64 C 425.25 151.64 424.85 151.24 424.85 150.74 L 424.85 143.94 C 424.85 143.44 425.25 143.04 425.75 143.04 Z" fill="#dbe1f4" fill-rule="nonzero" node-id="112" stroke="none" target-height="8.607483" target-width="13.433105" target-x="424.848" target-y="143.037"></path><path d="M 596.96 129.00 C 596.96 145.57 584.30 159.00 568.67 159.00 C 553.05 159.00 540.39 145.57 540.39 129.00 C 540.39 112.43 553.05 99.00 568.67 99.00 C 584.30 99.00 596.96 112.43 596.96 129.00 Z" fill="#6386ff" fill-rule="nonzero" node-id="114" stroke="none" target-height="60" target-width="56.572998" target-x="540.3865" target-y="99"></path><path d="M 584.28 121.96 L 565.60 142.00 L 555.02 130.64 L 557.78 127.68 L 565.60 136.07 L 581.52 119.00 L 584.28 121.96 Z" fill="#ffffff" fill-rule="evenodd" node-id="116" stroke="none" target-height="23" target-width="29.260986" target-x="555.018" target-y="119"></path><path d="M 420.00 515.30 C 420.00 521.39 382.17 526.33 335.50 526.33 C 288.83 526.33 251.00 521.39 251.00 515.30 C 251.00 509.20 288.83 504.27 335.50 504.27 C 382.17 504.27 420.00 509.20 420.00 515.30 Z" fill="#f3f3f3" fill-rule="nonzero" node-id="118" stroke="none" target-height="22.058167" target-width="169" target-x="251" target-y="504.2669"></path><path d="M 305.10 507.93 L 305.10 491.78 L 306.23 484.55 L 315.30 485.10 L 310.84 507.93 L 305.10 507.93 Z" fill="#fcd8e3" fill-rule="nonzero" node-id="120" stroke="none" target-height="23.378998" target-width="10.205017" target-x="305.098" target-y="484.553"></path><path d="M 357.04 502.25 L 354.72 480.07 L 364.87 479.10 L 364.37 501.55 L 357.04 502.25 Z" fill="#fcd8e3" fill-rule="nonzero" node-id="122" stroke="none" target-height="23.15802" target-width="10.153015" target-x="354.718" target-y="479.097"></path><path d="M 303.96 515.54 C 303.96 506.85 305.10 498.15 305.10 498.15 C 306.80 499.23 310.20 499.23 312.47 498.15 C 312.47 501.95 313.60 507.39 315.87 508.48 L 315.87 508.48 C 318.14 509.56 318.14 509.56 318.14 511.74 C 318.14 513.91 314.17 515.54 314.17 515.54 L 303.96 515.54 Z" fill="#6885ef" fill-rule="nonzero" node-id="124" stroke="none" target-height="17.39801" target-width="14.171997" target-x="303.965" target-y="498.146"></path><path d="M 378.53 509.44 C 372.29 511.07 362.28 510.89 355.85 510.53 L 356.22 494.15 C 360.95 495.23 364.36 493.60 364.36 494.15 C 364.36 494.69 366.06 504.00 372.86 505.64 C 378.30 506.94 378.72 508.72 378.53 509.44 Z" fill="#6885ef" fill-rule="nonzero" node-id="126" stroke="none" target-height="16.731873" target-width="22.705902" target-x="355.852" target-y="494.03912"></path><path d="M 327.21 441.06 C 327.21 444.97 317.76 477.76 313.04 493.89 C 309.41 495.20 305.29 494.44 303.96 493.89 L 310.77 441.06 C 309.63 428.01 313.04 386.36 313.04 380.71 C 313.04 375.05 315.30 364.22 315.30 359.50 L 357.82 359.50 C 359.52 380.71 372.00 428.85 372.00 434.50 C 372.00 440.15 366.06 489.81 366.06 489.81 C 366.06 489.81 356.99 490.71 354.72 489.81 C 354.72 487.09 355.36 455.19 352.72 441.06 L 333.44 407.35 C 332.12 416.05 327.21 437.14 327.21 441.06 Z" fill="#3c56c6" fill-rule="nonzero" node-id="128" stroke="none" target-height="135.08984" target-width="68.035" target-x="303.965" target-y="359.505"></path><path d="M 402.77 296.34 C 400.96 300.25 400.88 305.94 401.07 308.30 C 402.58 309.75 405.61 312.32 405.61 311.02 C 405.61 309.39 410.71 308.30 412.41 303.95 C 413.77 300.47 420.35 291.99 415.81 288.73 C 414.11 286.01 405.04 291.44 402.77 296.34 Z" fill="#fcd8e3" fill-rule="nonzero" node-id="130" stroke="none" target-height="23.35318" target-width="16.358398" target-x="401.02466" target-y="288.00836"></path><path d="M 295.39 387.12 C 295.19 382.82 296.67 378.27 295.41 376.21 C 293.39 375.52 294.25 374.23 290.89 375.56 C 290.24 375.82 286.41 381.19 286.91 385.83 C 287.31 389.55 285.86 394.65 291.42 395.75 C 294.22 395.82 295.64 392.49 295.39 387.12 Z" fill="#fcd8e3" fill-rule="nonzero" node-id="132" stroke="none" target-height="20.76535" target-width="9.008453" target-x="286.912" target-y="374.98666"></path><path d="M 353.85 340.48 C 354.76 342.65 370.86 367.12 378.80 379.08 L 382.00 377.19 L 356.12 336.67 C 354.99 337.03 352.94 338.30 353.85 340.48 Z" fill="#4066ea" fill-rule="nonzero" node-id="134" stroke="none" target-height="42.40799" target-width="28.374695" target-x="353.6253" target-y="336.67"></path><path d="M 328.34 279.04 C 328.34 282.52 327.02 290.82 325.51 292.09 C 327.02 294.26 331.06 298.61 335.14 298.61 C 340.25 298.61 345.35 293.72 343.08 292.09 C 341.27 290.78 341.57 281.21 341.00 279.04 C 337.98 277.59 328.34 275.56 328.34 279.04 Z" fill="#fcd8e3" fill-rule="nonzero" node-id="136" stroke="none" target-height="21.480316" target-width="18.098785" target-x="325.507" target-y="277.13168"></path><path d="M 341.87 282.68 L 336.28 283.84 C 333.06 284.27 323.79 271.56 322.85 264.21 C 321.90 256.87 321.96 248.88 338.06 246.71 C 354.16 244.53 348.15 276.34 347.39 278.94 C 346.79 281.01 343.46 282.30 341.87 282.68 Z" fill="#fcd8e3" fill-rule="nonzero" node-id="138" stroke="none" target-height="37.16449" target-width="26.535126" target-x="322.56036" target-y="246.67151"></path><path d="M 313.85 259.26 C 314.62 266.18 324.24 275.61 326.86 278.60 C 329.86 279.90 334.18 277.77 334.18 277.77 C 335.29 275.82 335.30 268.09 335.66 265.57 C 336.31 261.12 339.81 255.24 343.84 252.01 C 351.69 245.72 342.95 233.93 342.55 230.33 C 338.97 234.01 336.96 236.43 326.25 237.63 C 313.86 239.02 312.88 250.62 313.85 259.26 Z" fill="#f9759c" fill-rule="nonzero" node-id="140" stroke="none" target-height="48.656754" target-width="33.503296" target-x="313.59607" target-y="230.33"></path><path d="M 292.70 337.80 L 288.50 377.50 L 295.98 377.50 C 298.00 369.22 304.66 351.09 305.52 347.00 C 306.37 342.91 313.34 330.63 315.30 326.03 C 315.30 328.41 317.07 338.40 317.07 345.77 C 317.07 354.97 313.38 363.60 313.38 369.22 C 313.38 374.84 320.12 379.00 329.20 379.00 C 338.29 379.00 359.02 373.35 359.02 369.26 L 359.02 348.62 L 359.02 326.03 C 363.47 333.86 369.20 339.12 376.04 339.12 C 382.87 339.12 402.25 323.18 406.88 309.55 L 401.00 307.50 L 376.04 322.76 C 370.34 313.90 360.66 295.67 355.53 293.63 C 349.12 291.07 344.89 291.58 342.75 291.58 C 340.61 291.58 341.15 296.19 334.20 296.19 C 327.26 296.19 327.26 291.58 325.66 291.58 C 324.37 291.58 317.07 293.63 312.26 296.19 C 307.45 298.74 292.70 337.80 292.70 337.80 Z" fill="#b2c3ff" fill-rule="nonzero" node-id="142" stroke="none" target-height="87.45282" target-width="118.37601" target-x="288.5" target-y="291.54718"></path><path d="M 370.00 385.00 L 367.46 387.23 C 361.78 382.79 347.28 362.38 336.00 339.00 C 328.37 323.18 322.50 306.00 318.70 293.48 C 318.89 293.11 319.30 293.05 321.00 292.50 C 322.70 291.95 323.62 291.65 323.81 291.83 C 324.94 297.32 326.77 310.84 340.25 336.79 C 351.00 357.50 366.03 379.88 370.00 385.00 Z" fill="#6885ef" fill-rule="nonzero" node-id="144" stroke="none" target-height="95.40845" target-width="51.29599" target-x="318.704" target-y="291.82455"></path><path d="M 369.73 384.51 L 366.32 385.60 L 371.43 423.66 L 387.30 420.40 L 379.93 402.46 L 382.76 400.28 L 369.73 384.51 Z" fill="#4066ea" fill-rule="nonzero" node-id="146" stroke="none" target-height="39.14499" target-width="20.975006" target-x="366.324" target-y="384.515"></path><path d="M 369.73 384.51 L 382.20 376.90 L 394.67 389.95 L 393.11 391.30 L 399.77 403.54 L 387.30 420.40 L 379.93 402.46 L 382.76 400.28 L 369.73 384.51 Z" fill="#6885ef" fill-rule="nonzero" node-id="148" stroke="none" target-height="43.494995" target-width="30.04599" target-x="369.725" target-y="376.903"></path><path d="M 202.64 482.67 C 164.22 472.09 158.64 459.37 138.15 459.37 C 147.14 449.67 203.51 430.61 230.19 466.17 C 256.87 501.73 251.98 513.76 251.98 513.76 C 251.98 513.76 237.14 492.17 202.64 482.67 Z" fill="#fec6d7" fill-rule="nonzero" node-id="150" stroke="none" target-height="68.25549" target-width="114.176926" target-x="138.154" target-y="445.50848"></path><path d="M 190.55 443.00 C 122.05 397.50 131.55 317.00 131.55 317.00 C 146.55 377.00 230.13 376.66 251.42 427.36 C 272.70 478.07 251.42 514.22 251.42 514.22 C 251.42 514.22 259.05 488.50 190.55 443.00 Z" fill="#6386ff" fill-rule="nonzero" node-id="152" stroke="none" target-height="197.224" target-width="129.74785" target-x="131.13115" target-y="317"></path><path d="M 611.25 359.36 C 591.50 389.28 593.18 437.99 596.48 458.60 C 605.45 435.00 616.79 401.89 640.38 379.68 C 667.37 354.26 682.06 323.98 690.96 296.83 C 682.38 316.50 635.92 321.96 611.25 359.36 Z" fill="#7795ff" fill-opacity="0.7" fill-rule="nonzero" node-id="154" stroke="none" target-height="161.76999" target-width="96.47162" target-x="594.48737" target-y="296.828"></path><path d="M 615.48 319.40 C 595.74 349.31 597.41 398.02 600.71 418.63 C 609.68 395.03 621.02 361.92 644.61 339.71 C 671.60 314.30 683.05 278.81 683.91 250.41 C 674.69 254.12 640.15 282.00 615.48 319.40 Z" fill="#7795ff" fill-opacity="0.7" fill-rule="nonzero" node-id="156" stroke="none" target-height="168.22401" target-width="85.19745" target-x="598.71655" target-y="250.407"></path><path d="M 598.92 327.39 C 582.07 375.01 590.18 435.64 596.35 460.00 C 602.69 425.74 619.41 373.13 636.25 340.99 C 657.20 300.98 668.74 247.34 674.55 208.63 C 668.10 237.75 619.98 267.86 598.92 327.39 Z" fill="#6386ff" fill-rule="nonzero" node-id="158" stroke="none" target-height="251.36801" target-width="85.64264" target-x="588.91034" target-y="208.633"></path></svg>