<?xml version="1.0" standalone="no"?><!DOCTYPE svg PUBLIC "-//W3C//DTD SVG 1.1//EN" "http://www.w3.org/Graphics/SVG/1.1/DTD/svg11.dtd"><svg t="1682080536112" class="icon" viewBox="0 0 1088 1024" version="1.1" xmlns="http://www.w3.org/2000/svg" p-id="4128" xmlns:xlink="http://www.w3.org/1999/xlink" width="212.5" height="200"><path d="M897.408 732.032h-70.336a15.744 15.744 0 0 0-12.288 5.76 353.856 353.856 0 0 1-273.024 128.192 352.768 352.768 0 0 1-250.56-103.68 353.28 353.28 0 0 1-76.032-112.512A350.528 350.528 0 0 1 187.392 512 352.32 352.32 0 0 1 291.2 261.76a353.856 353.856 0 0 1 250.56-103.744 353.856 353.856 0 0 1 273.024 128.192c3.008 3.712 7.616 5.76 12.288 5.76h70.336c6.272 0 10.176-6.976 6.656-12.288a430.208 430.208 0 0 0-363.392-197.696A429.504 429.504 0 0 0 111.36 516.48a430.272 430.272 0 0 0 430.4 425.6 430.272 430.272 0 0 0 362.304-197.76 8 8 0 0 0-6.656-12.224z m88.896-226.304l-141.952-112a8 8 0 0 0-12.992 6.272v76.032H517.376a8 8 0 0 0-8 8v56c0 4.352 3.584 7.936 8 7.936h313.984V624c0 6.72 7.808 10.496 12.992 6.272l141.952-112a8 8 0 0 0 0-12.544z" fill="#1E90FF" p-id="4129"></path></svg>