<svg height="750" legacy-metrics="false" node-id="1" sillyvg="true" template-height="750" template-width="750" version="1.1" viewBox="0 0 750 750" width="750" xmlns="http://www.w3.org/2000/svg" xmlns:xlink="http://www.w3.org/1999/xlink"><defs node-id="31"></defs><g node-id="144"><g node-id="146"><path d="M 462.10 236.80 L 462.10 236.80 C 384.80 236.20 321.00 295.10 314.00 370.70 C 295.50 351.60 269.60 339.60 240.90 339.40 L 240.90 339.40 C 184.10 339.00 137.70 384.70 137.30 441.50 L 136.50 542.90 L 312.10 544.20 L 342.20 544.40 L 607.30 546.40 L 608.50 385.50 C 609.20 304.00 543.60 237.40 462.10 236.80 Z" fill="#b3b3b3" fill-opacity="0.1" fill-rule="nonzero" group-id="1,3" node-id="37" stroke-linecap="butt" stroke-opacity="0.1" stroke-width="1" target-height="309.60004" target-width="472" target-x="136.5" target-y="236.8"></path></g><g node-id="147"><path d="M 216.90 227.40 C 213.50 227.40 210.40 228.50 207.90 230.30 C 208.10 229.30 208.20 228.30 208.20 227.30 C 208.30 219.00 201.60 212.20 193.20 212.10 C 184.80 212.00 178.10 218.70 178.00 227.10 C 178.00 227.40 178.00 227.70 178.00 228.00 C 176.40 227.40 174.60 227.00 172.80 227.00 C 164.50 226.90 157.70 233.60 157.60 242.00 C 157.50 250.20 164.00 256.90 172.10 257.20 L 172.10 257.20 L 216.70 257.50 C 225.00 257.60 231.80 250.90 231.90 242.50 C 232.00 234.10 225.20 227.50 216.90 227.40 Z" fill="#b3b3b3" fill-opacity="0.3" fill-rule="nonzero" group-id="1,4" node-id="42" stroke-linecap="butt" stroke-opacity="0.3" stroke-width="1" target-height="45.399994" target-width="74.29999" target-x="157.6" target-y="212.1"></path></g><g node-id="148"><path d="M 596.40 194.20 C 593.00 194.20 589.90 195.30 587.40 197.10 C 587.60 196.10 587.70 195.10 587.70 194.10 C 587.80 185.80 581.10 179.00 572.70 178.90 C 564.30 178.80 557.60 185.50 557.50 193.90 C 557.50 194.20 557.50 194.50 557.50 194.80 C 555.90 194.20 554.10 193.80 552.30 193.80 C 544.00 193.70 537.20 200.40 537.10 208.80 C 537.00 217.00 543.50 223.70 551.60 224.00 L 551.60 224.00 L 596.20 224.30 C 604.50 224.40 611.30 217.70 611.40 209.30 C 611.50 200.90 604.70 194.30 596.40 194.20 Z" fill="#b3b3b3" fill-opacity="0.3" fill-rule="nonzero" group-id="1,5" node-id="47" stroke-linecap="butt" stroke-opacity="0.3" stroke-width="1" target-height="45.40001" target-width="74.30005" target-x="537.1" target-y="178.9"></path></g><g node-id="149"><g node-id="151"><path d="M 496.90 497.50 C 494.80 497.50 493.20 499.10 493.20 501.20 C 493.20 502.70 494.00 503.90 495.20 504.50 L 494.70 569.60 L 498.20 569.60 L 498.70 504.30 C 499.80 503.70 500.50 502.50 500.50 501.20 C 500.60 499.10 499.00 497.60 496.90 497.50 Z" fill="#b3b3b3" fill-opacity="0.1" fill-rule="nonzero" group-id="1,6,8" node-id="54" stroke-linecap="butt" stroke-opacity="0.1" stroke-width="1" target-height="72.099976" target-width="7.299988" target-x="493.2" target-y="497.5"></path><path d="M 572.30 501.70 C 572.30 499.80 570.70 498.10 568.60 498.00 C 566.50 498.00 564.90 499.60 564.90 501.70 C 564.90 503.10 565.70 504.30 566.80 504.90 L 566.30 570.10 L 569.80 570.10 L 570.30 504.90 C 571.50 504.30 572.20 503.10 572.30 501.70 Z" fill="#b3b3b3" fill-opacity="0.1" fill-rule="nonzero" group-id="1,6,8" node-id="56" stroke-linecap="butt" stroke-opacity="0.1" stroke-width="1" target-height="72.099976" target-width="7.3999634" target-x="564.9" target-y="498"></path></g><g node-id="152"><path d="M 484.78 526.29 L 484.90 509.79 L 577.20 510.48 L 577.08 526.98 Z" fill="#b3b3b3" fill-opacity="0.1" fill-rule="nonzero" group-id="1,6,9" node-id="61" stroke-linecap="butt" stroke-opacity="0.1" stroke-width="1.0000277" target-height="17.1875" target-width="92.42288" target-x="484.77603" target-y="509.79034"></path></g><g node-id="153"><path d="M 495.40 509.80 L 495.20 510.10 L 485.50 526.30 L 484.80 526.30 L 484.90 509.80 Z" fill="#b3b3b3" fill-opacity="0.1" fill-rule="nonzero" group-id="1,6,10" node-id="66" stroke-linecap="butt" stroke-opacity="0.1" stroke-width="1" target-height="16.5" target-width="10.600006" target-x="484.8" target-y="509.8"></path></g><g node-id="154"><path d="M 518.70 510.00 L 508.80 526.50 L 496.30 526.40 L 500.20 519.80 L 506.00 509.90 Z" fill="#b3b3b3" fill-opacity="0.1" fill-rule="nonzero" group-id="1,6,11" node-id="71" stroke-linecap="butt" stroke-opacity="0.1" stroke-width="1" target-height="16.600006" target-width="22.400024" target-x="496.3" target-y="509.9"></path></g><g node-id="155"><path d="M 542.00 510.20 L 532.10 526.60 L 519.60 526.50 L 529.30 510.10 Z" fill="#b3b3b3" fill-opacity="0.1" fill-rule="nonzero" group-id="1,6,12" node-id="76" stroke-linecap="butt" stroke-opacity="0.1" stroke-width="1" target-height="16.49997" target-width="22.400024" target-x="519.6" target-y="510.1"></path></g><g node-id="156"><path d="M 565.30 510.40 L 555.50 526.80 L 542.90 526.70 L 552.70 510.30 Z" fill="#b3b3b3" fill-opacity="0.1" fill-rule="nonzero" group-id="1,6,13" node-id="81" stroke-linecap="butt" stroke-opacity="0.1" stroke-width="1" target-height="16.5" target-width="22.399963" target-x="542.9" target-y="510.3"></path></g><g node-id="157"><path d="M 577.20 510.40 L 577.10 527.00 L 566.20 526.90 L 576.00 510.40 Z" fill="#b3b3b3" fill-opacity="0.1" fill-rule="nonzero" group-id="1,6,14" node-id="86" stroke-linecap="butt" stroke-opacity="0.1" stroke-width="1" target-height="16.600006" target-width="11" target-x="566.2" target-y="510.4"></path></g><g node-id="158"><path d="M 484.58 551.81 L 484.70 535.31 L 577.00 536.00 L 576.88 552.50 Z" fill="#b3b3b3" fill-opacity="0.1" fill-rule="nonzero" group-id="1,6,15" node-id="91" stroke-linecap="butt" stroke-opacity="0.1" stroke-width="1.0000277" target-height="17.1875" target-width="92.42288" target-x="484.57687" target-y="535.31006"></path></g><g node-id="159"><path d="M 495.20 535.30 L 495.00 535.60 L 485.30 551.80 L 484.60 551.80 L 484.70 535.30 Z" fill="#b3b3b3" fill-opacity="0.1" fill-rule="nonzero" group-id="1,6,16" node-id="96" stroke-linecap="butt" stroke-opacity="0.1" stroke-width="1" target-height="16.5" target-width="10.600006" target-x="484.6" target-y="535.3"></path></g><g node-id="160"><path d="M 518.50 535.50 L 508.60 552.00 L 496.10 551.90 L 500.00 545.30 L 505.80 535.40 Z" fill="#b3b3b3" fill-opacity="0.1" fill-rule="nonzero" group-id="1,6,17" node-id="101" stroke-linecap="butt" stroke-opacity="0.1" stroke-width="1" target-height="16.599976" target-width="22.399994" target-x="496.1" target-y="535.4"></path></g><g node-id="161"><path d="M 541.80 535.70 L 531.90 552.10 L 519.40 552.00 L 529.10 535.60 Z" fill="#b3b3b3" fill-opacity="0.1" fill-rule="nonzero" group-id="1,6,18" node-id="106" stroke-linecap="butt" stroke-opacity="0.1" stroke-width="1" target-height="16.5" target-width="22.399963" target-x="519.4" target-y="535.6"></path></g><g node-id="162"><path d="M 565.10 535.90 L 555.40 552.30 L 542.70 552.20 L 552.50 535.80 Z" fill="#b3b3b3" fill-opacity="0.1" fill-rule="nonzero" group-id="1,6,19" node-id="111" stroke-linecap="butt" stroke-opacity="0.1" stroke-width="1" target-height="16.5" target-width="22.399963" target-x="542.7" target-y="535.8"></path></g><g node-id="163"><path d="M 577.00 536.00 L 576.90 552.50 L 566.00 552.40 L 575.80 536.00 Z" fill="#b3b3b3" fill-opacity="0.1" fill-rule="nonzero" group-id="1,6,20" node-id="116" stroke-linecap="butt" stroke-opacity="0.1" stroke-width="1" target-height="16.5" target-width="11" target-x="566" target-y="536"></path></g><g node-id="164"><path d="M 577.10 527.00 C 577.10 527.00 577.10 526.90 577.10 526.70 L 577.10 525.80 C 577.10 525.10 577.10 524.00 577.10 522.60 C 577.10 519.80 577.20 515.70 577.20 510.40 L 577.30 510.50 L 485.00 510.00 L 485.00 510.00 L 485.10 509.90 C 485.10 515.50 485.00 521.10 485.00 526.40 L 484.90 526.30 L 550.70 526.90 L 570.20 527.00 L 575.50 527.00 L 575.50 527.00 L 570.20 527.00 L 550.70 526.90 L 484.90 526.60 L 484.60 526.60 L 484.70 509.80 L 484.80 509.80 L 577.10 510.60 L 577.20 510.60 L 577.20 510.70 C 577.20 516.00 577.10 520.10 577.10 522.90 C 577.10 524.40 577.10 525.40 577.10 526.10 L 577.10 526.80 C 577.10 526.80 577.10 527.00 577.10 527.00 Z" fill="#b3b3b3" fill-opacity="0.1" fill-rule="nonzero" group-id="1,6,21" node-id="121" stroke-linecap="butt" stroke-opacity="0.1" stroke-width="1" target-height="17.200012" target-width="92.69998" target-x="484.6" target-y="509.8"></path></g><path d="M 576.90 552.50 C 576.90 552.50 576.90 552.40 576.90 552.20 L 576.90 551.30 C 576.90 550.60 576.90 549.50 576.90 548.10 C 576.90 545.30 577.00 541.20 577.00 535.90 L 577.10 536.00 L 484.80 535.50 L 484.80 535.50 L 484.90 535.40 C 484.90 541.00 484.80 546.60 484.80 551.90 L 484.70 551.80 L 550.50 552.40 L 570.00 552.50 L 575.30 552.50 L 575.30 552.50 L 570.00 552.50 L 550.50 552.40 L 484.70 552.10 L 484.40 552.10 L 484.50 535.40 L 484.60 535.40 L 576.90 536.20 L 577.00 536.20 L 577.00 536.30 C 577.00 541.60 576.90 545.70 576.90 548.50 C 576.90 550.00 576.90 551.00 576.90 551.70 L 576.90 552.40 C 576.90 552.30 576.90 552.50 576.90 552.50 Z" fill="#b3b3b3" fill-opacity="0.1" fill-rule="nonzero" group-id="1,6,22" node-id="126" stroke-linecap="butt" stroke-opacity="0.1" stroke-width="1" target-height="17.099976" target-width="92.69998" target-x="484.4" target-y="535.4"></path></g></g><g node-id="145"><g node-id="150"><g node-id="166"><path d="M 232.50 338.90 L 232.50 302.50 L 268.90 302.50 L 268.90 282.60 L 222.50 282.60 C 217.00 282.60 212.50 287.10 212.50 292.60 L 212.50 339.00 L 232.50 339.00 Z M 395.60 302.50 L 432.00 302.50 L 432.00 338.90 L 451.90 338.90 L 451.90 292.50 C 451.90 287.00 447.40 282.50 441.90 282.50 L 395.50 282.50 L 395.50 302.50 Z M 432.00 465.60 L 432.00 502.00 L 395.60 502.00 L 395.60 521.90 L 442.00 521.90 C 447.50 521.90 452.00 517.40 452.00 511.90 L 452.00 465.50 L 432.00 465.50 Z M 268.90 502.00 L 232.50 502.00 L 232.50 465.60 L 212.60 465.60 L 212.60 512.00 C 212.60 517.50 217.10 522.00 222.60 522.00 L 269.00 522.00 L 269.00 502.00 Z" fill="#b3b3b3" fill-opacity="0.35" fill-rule="nonzero" group-id="2,7,23" node-id="137" stroke-linecap="butt" stroke-opacity="0.35" stroke-width="1" target-height="239.5" target-width="239.5" target-x="212.5" target-y="282.5"></path></g><path d="M 365.70 390.80 C 373.70 382.30 378.20 371.40 378.20 359.40 C 378.20 334.00 357.80 313.50 332.30 313.50 C 306.80 313.50 286.40 333.90 286.40 359.40 C 286.40 371.40 291.40 382.80 298.90 390.80 C 280.00 399.80 266.50 419.20 266.50 441.70 L 266.50 482.00 C 266.50 487.50 271.00 492.00 276.50 492.00 L 388.20 492.00 C 393.70 492.00 398.20 487.50 398.20 482.00 L 398.20 441.60 C 398.10 418.70 384.60 399.80 365.70 390.80 Z" fill="#b3b3b3" fill-opacity="0.35" fill-rule="nonzero" group-id="2,7,24" node-id="142" stroke-linecap="butt" stroke-opacity="0.35" stroke-width="1" target-height="178.5" target-width="131.70001" target-x="266.5" target-y="313.5"></path></g></g></svg>