<?xml version="1.0" standalone="no"?><!DOCTYPE svg PUBLIC "-//W3C//DTD SVG 1.1//EN" "http://www.w3.org/Graphics/SVG/1.1/DTD/svg11.dtd"><svg t="1681625600225" class="icon" viewBox="0 0 1024 1024" version="1.1" xmlns="http://www.w3.org/2000/svg" p-id="1822" xmlns:xlink="http://www.w3.org/1999/xlink" width="200" height="200"><path d="M700.078448 457.807403c5.388409-35.438651 8.911322-70.049316 10.154745-102.794485h4.144985c87.458689 0 150.046742 20.724928 159.165422 52.848023 3.522913 12.434234-0.207358 27.35676-11.191533 44.765411-12.848949 20.102855-34.19595 41.241775-63.210127 62.795411-10.984176 8.082613-23.004417 16.165227-35.646008 24.040482-18.859431-26.942045-39.999074-54.50544-63.417484-81.654842z m-19.481505 95.955295c2.694927-11.191533 5.388409-22.383066 7.668621-33.5746 11.605526 14.507811 22.174986 29.014899 32.122374 43.521987-15.543154 8.082613-31.708381 15.957869-48.702316 23.419133 3.316277-10.984176 6.217117-22.175709 8.911321-33.36652zM527.028011 687.850849c10.984176-2.901562 21.968351-5.803124 33.159884-8.912044 10.984176-3.108197 21.967629-6.424475 32.744447-9.947388-6.83919 17.201293-13.885015 33.781235-21.553636 49.531747-14.714446-9.533394-29.636249-19.688139-44.350695-30.672315z m-135.538932-50.77517c8.289971 8.082613 16.7873 15.750512 25.076549 23.41841-18.237358 2.694927-36.268082 4.767058-53.676732 6.217839 0.829431-17.40865 2.072854-35.439373 4.144985-53.884089 8.082613 8.082613 16.165227 16.165227 24.455198 24.247118z m-48.080965-167.040677c-2.694927 11.191533-5.388409 22.383066-7.667898 33.573877-11.606249-14.507811-22.175709-29.014899-32.123819-43.314629 15.543876-8.082613 31.916461-15.957869 48.703761-23.419133-3.10892 10.984176-6.011204 21.968351-8.912044 33.159885z m153.777013-134.088873c-10.984176 2.694927-22.175709 5.803124-33.159885 8.912044a995.354299 995.354299 0 0 0-32.951804 9.947387 846.583493 846.583493 0 0 1 21.553636-49.531746c14.714446 9.533394 29.636249 19.895497 44.558053 30.672315z m135.538931 50.982527c-8.289971-8.082613-16.7873-15.750512-25.07727-23.41841 18.238081-2.694927 36.268804-4.767058 53.677454-6.217117-0.829431 17.40865-2.072854 35.438651-4.144986 53.88409-8.082613-8.289971-16.165227-16.372584-24.455198-24.248563z m0.621351 155.020436c-5.802402 23.211775-12.227599 46.008834-19.273424 68.184542-21.761716 7.875256-44.350695 15.129161-67.355112 21.760271-23.004417 6.632555-46.008834 12.434957-68.598535 17.202015-17.823366-14.921803-35.438651-30.879673-52.641389-47.459614-17.20057-16.579942-33.780512-33.781235-49.324388-50.77517 3.937628-22.797059 8.912044-46.008834 14.715168-69.220608 5.802402-23.211775 12.226876-46.008834 19.273424-68.18382 21.761716-7.875256 44.350695-15.129161 67.355112-21.761716 23.004417-6.63111 46.008834-12.434234 68.598535-17.407928 17.823366 14.921803 35.438651 30.879673 52.641389 47.459615 17.20057 16.57922 33.780512 33.573877 49.323666 50.77517-4.144263 23.004417-8.911322 46.216191-14.714446 69.427243z m-84.763762-374.701057c17.202015-14.093095 32.537811-21.346278 46.008833-21.346278 2.694927 0 5.595767 0.413993 8.082614 1.036066 11.398891 2.901562 21.760993 12.227599 30.879673 27.97811-4.352343 5.388409-7.46054 11.812884-9.326037 19.066789-6.424475 25.698621 8.289971 51.811235 32.952526 60.101207 0.62135 3.73027 1.036066 7.461263 1.450781 11.191533 1.657416 13.67838 2.486847 27.97811 3.108198 42.899914-32.951804 2.486847-67.147754 7.046548-102.37977 13.885737-27.97811-22.383066-56.163579-42.485921-83.934332-60.101929 5.180329-8.911322 10.362103-17.616008 15.750512-25.905256 18.859431-29.843607 38.340936-53.055381 57.407002-68.805893zM241.235702 250.975009c8.082613-8.497329 21.346278-12.642314 39.169643-12.642314 33.781235 0 78.545923 14.714446 129.943166 42.485198-14.29973 29.636972-27.35676 61.759345-39.169644 95.54058-33.366519 13.05703-65.075623 27.35676-94.089799 42.692556-7.46054-12.848949-14.29973-25.490541-20.30949-37.925497-15.751234-32.745169-24.662556-61.345352-26.528052-85.178478-1.658139-20.724928 2.072132-35.646009 10.984176-44.972045z m24.86919 409.93235c-7.046548-11.604803-18.030001-19.688139-31.293665-23.003694-3.937628-1.036066-8.082613-1.450781-12.227599-1.450781-13.05703 0-25.284629 4.973694-34.19595 13.263664-20.724928-8.703964-33.988592-20.30949-37.718863-33.781234-3.522913-12.434234 0.207358-27.356038 11.191534-44.764688 12.848949-20.102855 34.19595-41.242498 63.210126-62.796134 10.984176-8.289971 23.004417-16.165227 35.646008-24.040482 18.445439 27.149402 39.791717 54.50544 63.210127 81.654842-5.388409 35.439373-8.911322 70.049316-10.154745 102.794485h-4.144986c-14.29973 0-27.770753-0.62135-40.413067-1.658138-0.828708-2.072132-1.865496-4.144986-3.10892-6.217117z m209.319241 195.641583c-17.201293 14.092373-32.537811 21.346278-46.008833 21.346278-2.694927 0-5.388409-0.414715-8.082614-1.036788-12.434234-3.108197-23.625767-13.885015-33.159162-32.122373-10.984176-21.139643-18.652796-50.153819-22.797781-86.215266-1.657416-13.677658-2.486847-27.97811-3.108198-42.899914 32.951804-2.486847 67.147754-7.046548 102.37977-13.885015 27.97811 22.382344 56.163579 42.485199 83.934332 60.101206-5.180329 8.911322-10.362103 17.616008-15.750512 25.905979-18.859431 29.842884-38.340213 53.054659-57.407002 68.805893z m307.345945-83.727696c-3.316277 3.316277-7.46054 6.009759-12.434234 8.082613-6.83919-8.912044-16.372584-15.543876-27.978833-18.445438-3.937628-1.036066-8.082613-1.450059-12.227599-1.450059-14.507088 0-27.770753 6.009759-37.096789 16.164505-23.833125-7.045825-50.567812-18.444716-79.375354-33.98787 14.29973-29.636972 27.35676-61.759345 39.169644-95.54058 33.366519-13.05703 65.075623-27.35676 94.089799-42.692556 7.46054 12.848949 14.29973 25.491264 20.30949 37.925497 15.751234 32.745169 24.663278 61.345352 26.528052 85.178478 1.658139 20.51757-2.072132 35.646731-10.984176 44.76541z m137.611786-378.43205c-8.289971-29.014899-32.537811-52.225951-70.255951-67.147754-35.025381-13.885738-80.619499-20.932285-135.747012-20.932285h-3.937628c-0.62135-16.165227-1.658139-31.708381-3.316278-46.422827-0.62135-4.767058-1.242701-9.533394-1.864773-14.093095 8.289971-6.83919 14.507811-16.165227 17.40865-27.14868 3.316277-13.05703 1.243423-26.73541-5.803124-38.340935-7.045825-11.605526-18.030001-19.688139-31.293666-23.004417a39.569909 39.569909 0 0 0-6.83919-1.243424c-0.414715-0.828708-0.829431-1.450781-1.243423-2.279489-15.958592-29.428892-37.30487-47.459615-63.003491-53.884089-6.424475-1.658139-13.055585-2.486847-19.895498-2.486847-24.247118 0-49.325111 10.362103-74.815652 30.879672-23.833847 19.066789-47.252257 46.630184-69.841958 81.654843-5.595767 8.911322-11.398891 18.030723-16.7873 27.770753-58.443068-31.293665-111.084456-47.873608-152.533589-47.873608-31.708381 0-56.577571 9.326037-74.19358 27.563395-18.445439 19.066789-26.73541 45.801476-24.662555 79.168718 1.865496 30.464957 12.434234 66.111688 31.501023 105.695325 6.425197 13.471022 13.88646 27.149402 21.968351 41.03514-13.67838 8.496606-26.527329 17.201293-38.547571 26.112614-35.232016 26.113337-61.345352 52.641389-77.303222 78.754003-17.40865 28.599461-22.589702 55.956221-15.129161 81.447485 8.289971 28.600183 32.123819 51.811958 69.220609 66.733761 1.036066 6.009759 3.316277 11.605526 6.424474 16.993212 7.046548 11.606249 18.030723 19.688862 31.087031 23.004417 3.937628 1.036788 8.082613 1.451504 12.227598 1.451504 16.994657 0 32.330454-8.496606 41.656491-21.761716 14.300453 1.244146 29.428892 1.866219 45.387483 1.866219h3.937628c0.413993 16.165227 1.657416 31.708381 3.316278 46.422826 4.972971 43.729345 14.921081 79.375353 29.635526 106.317398 15.957869 29.428892 37.304147 47.459615 63.002769 53.88409 6.424475 1.658139 13.05703 2.486847 19.895497 2.486846 24.24784 0 49.325111-10.362103 74.816375-30.879672 23.833125-19.066789 47.251535-46.422827 69.841958-81.654842 5.595767-8.912044 11.398168-18.030723 16.786578-27.771476 32.123819 17.202015 62.381418 30.050965 90.152171 37.92622 4.559701 17.40865 18.238081 31.916461 36.890877 36.47544 3.937628 1.036066 8.081891 1.450781 12.226876 1.450781 21.13892 0 39.584359-12.848949 47.0449-32.123096 16.165227-4.352343 29.843607-12.227599 40.620424-23.419132 18.445439-19.066789 26.734687-45.801476 24.662556-79.167996-1.865496-30.464957-12.434957-66.111688-31.501746-105.695325-6.424475-13.471022-13.885738-27.149402-21.968351-41.03514 13.67838-8.496606 26.528052-17.201293 38.548294-26.112614 35.231293-26.113337 61.34463-52.641389 77.302499-78.754003 16.994657-28.806819 22.175709-56.370936 14.921803-81.8622" p-id="1823" fill="#1E90FF"></path><path d="M536.367775 414.132968c-7.904878-1.928354-16.195572-2.89217-24.292635-2.892169-46.271824 0-86.567123 31.426606-97.749264 76.541706-6.555247 26.027359-2.314169 53.212164 11.375048 76.155168 13.881403 23.135912 35.860591 39.331484 62.080858 45.693824 7.904878 1.927631 16.195572 3.085077 24.293358 3.085077 46.271824 0 86.566401-31.426606 97.749264-76.541706 6.554525-26.028082 2.313447-53.212164-11.375771-76.155891-14.07431-23.135912-36.052776-39.330761-62.080858-45.886009" p-id="1824" fill="#1E90FF"></path></svg>